<?xml version="1.0" encoding="UTF-8"?>
<svg id="a" data-name="Layer 1" xmlns="http://www.w3.org/2000/svg" viewBox="0 0 512.5 443.43">
  <path d="m428.52,88.69h-100.17c-9.22,0-16.7-6.62-16.7-14.78V14.78c0-8.17,7.48-14.78,16.7-14.78h100.17c9.22,0,16.7,6.62,16.7,14.78v59.12c0,8.16-7.48,14.78-16.7,14.78Z" style="fill: #bddeff;"/>
  <path d="m183.65,88.69h-100.17c-9.22,0-16.7-6.62-16.7-14.78V14.78c0-8.17,7.48-14.78,16.7-14.78h100.17c9.22,0,16.7,6.62,16.7,14.78v59.12c0,8.16-7.48,14.78-16.7,14.78Z" style="fill: #d7ebff;"/>
  <g>
    <path d="m.5,384.31L0,103.47c0-24.45,22.47-44.34,50.09-44.34h411.83c27.62,0,50.09,19.89,50.09,44.34l.5,280.84" style="fill: #576573;"/>
    <path d="m461.91,443.43H50.09c-27.62,0-50.09-19.89-50.09-44.34v-29.56c0-8.17,7.48-14.78,16.7-14.78h478.61c9.22,0,16.7,6.62,16.7,14.78v29.56c0,24.45-22.47,44.34-50.09,44.34Z" style="fill: #576573;"/>
  </g>
  <g>
    <path d="m256,370v73.43h205.91c27.62,0,50.09-19.89,50.09-44.34v-29.56" style="fill: #485566;"/>
    <path d="m512,369.53V103.47c0-24.45-22.47-44.34-50.09-44.34h-205.91v310.88" style="fill: #485566;"/>
  </g>
  <path d="m497,384.31H16V118.25h481v266.06Z" style="fill: #5da33d;"/>
  <rect x="256.5" y="118.25" width="240.5" height="266.06" style="fill: #4b8e38;"/>
  <path d="m150.28,229.7h-16.7v-16.7c0-9.22-7.48-16.7-16.7-16.7s-16.7,7.47-16.7,16.7v16.7h-16.69c-9.22,0-16.7,7.47-16.7,16.7s7.48,16.7,16.7,16.7h16.7v16.7c0,9.22,7.48,16.7,16.7,16.7s16.7-7.47,16.7-16.7v-16.7h16.7c9.22,0,16.7-7.47,16.7-16.7s-7.48-16.7-16.7-16.7Z" style="fill: #576573;"/>
  <path d="m428.54,263.09h-66.78c-9.22,0-16.7-7.47-16.7-16.7s7.48-16.7,16.7-16.7h66.78c9.22,0,16.7,7.47,16.7,16.7s-7.48,16.7-16.7,16.7Z" style="fill: #485566;"/>
  <path d="m244.88,324.3c-3.72,0-7.46-1.23-10.57-3.77-7.13-5.84-8.18-16.36-2.35-23.49l27.78-33.95h-42.68c-6.45,0-12.33-3.72-15.09-9.54-2.76-5.83-1.92-12.73,2.16-17.72l50.09-61.22c5.85-7.14,16.35-8.19,23.5-2.35,7.13,5.84,8.18,16.36,2.35,23.49l-27.78,33.95h42.68c6.45,0,12.33,3.72,15.09,9.54,2.76,5.83,1.92,12.73-2.16,17.72l-50.09,61.22c-3.31,4.04-8.1,6.12-12.94,6.12Z" style="fill: #5ce6e6;"/>
  <g>
    <path d="m294.98,229.7h-38.98v33.39h3.75l-3.75,4.58v52.27c.62-.56,1.27-1.1,1.82-1.77l50.09-61.22c4.09-4.99,4.92-11.89,2.16-17.72-2.76-5.83-8.64-9.54-15.09-9.54Z" style="fill: #51cccc;"/>
    <path d="m277.73,172.25c-6.49-5.3-15.7-4.87-21.73.59v52.33l24.08-29.42c5.84-7.14,4.78-17.65-2.35-23.49Z" style="fill: #51cccc;"/>
  </g>
</svg>