<?xml version="1.0" encoding="UTF-8"?>
<svg id="a" data-name="Layer 1" xmlns="http://www.w3.org/2000/svg" viewBox="0 0 428.05 412.42">
  <g>
    <rect x="19.68" width="390.07" height="43.9" style="fill: #434a54;"/>
    <path d="m19.24,22.95h389.57c10.62,0,19.24,9.96,19.24,22.26v344.96c0,12.29-8.61,22.26-19.24,22.26H19.24c-10.62,0-19.24-9.96-19.24-22.26V45.2c0-12.29,8.61-22.26,19.24-22.26Z" style="fill: #2a599e;"/>
  </g>
  <g>
    <path d="m97.86,178.48c5.41-59.72,55.75-106.69,116.84-106.69s111.47,46.97,116.88,106.69H97.86Z" style="fill: #f5f7fa;"/>
    <path d="m214.7,125.14c-5.88,0-10.66,4.78-10.66,10.66v32h21.34v-32c0-5.88-4.78-10.66-10.69-10.66h.01Z" style="fill: #434a54;"/>
    <path d="m214.7,61.14c-70.69,0-128,57.31-128,128h256c0-70.69-57.28-128-128-128Zm-75.41,52.58c20.12-20.14,46.94-31.23,75.41-31.23s55.28,11.09,75.44,31.23c15.03,15.02,25,33.73,29.12,54.08H110.17c4.09-20.34,14.09-39.06,29.12-54.08Z" style="fill: #459df4;"/>
  </g>
  <g>
    <g>
      <circle cx="216.01" cy="307.3" r="64.89" style="fill: #bcbcbc;"/>
      <path d="m214.88,367.61c-33.26-.63-59.8-28.19-59.17-61.45.63-33.26,28.19-59.8,61.45-59.17,33.26.63,59.8,28.19,59.17,61.45-.63,33.26-28.19,59.8-61.45,59.17h0Z" style="fill: #fff;"/>
    </g>
    <g>
      <rect x="189.65" y="280.94" width="14.2" height="34.28" style="fill: #fff;"/>
      <rect x="232.75" y="280.94" width="14.2" height="34.28" style="fill: #fff;"/>
    </g>
    <g>
      <rect x="187.36" y="278.65" width="14.2" height="34.28" style="fill: #656668;"/>
      <rect x="230.46" y="278.65" width="14.2" height="34.28" style="fill: #656668;"/>
    </g>
    <path d="m218.51,324.9h-.42c-6.74,0-12.24,5.51-12.24,12.24v12.24h24.91v-12.24c0-6.74-5.51-12.24-12.24-12.24h0Z" style="fill: #fff;"/>
    <path d="m216.23,322.73h-.42c-6.74,0-12.24,5.51-12.24,12.24v12.24h24.91v-12.24c0-6.74-5.51-12.24-12.24-12.24h0Z" style="fill: #656668;"/>
  </g>
</svg>