<?xml version="1.0" encoding="UTF-8"?>
<svg id="a" data-name="Layer 1" xmlns="http://www.w3.org/2000/svg" viewBox="0 0 426.66 512">
  <g>
    <rect x="341.31" y="96.89" width="21.34" height="97.45" style="fill: #ccd1d9;"/>
    <rect x="64" y="96.89" width="21.31" height="97.45" style="fill: #ccd1d9;"/>
  </g>
  <polygon points="379.19 85.34 306.41 85.34 287.84 85.34 282.53 85.34 253.16 144.22 181.22 0 138.62 85.34 47.47 85.34 47.47 106.66 142.84 106.66 142.84 106.66 151.84 106.66 181.22 47.78 253.16 192 295.75 106.66 379.19 106.66 379.19 85.34" style="fill: #fc6e51;"/>
  <path d="m384,202.66c0-5.88-4.78-10.66-10.69-10.66h-42.62c-5.91,0-10.69,4.78-10.69,10.66v105.34c0,5.89,4.78,10.66,10.69,10.66h42.62c5.91,0,10.69-4.77,10.69-10.66v-105.34Z" style="fill: #434a54;"/>
  <path d="m384,96c0,17.67-14.34,32-32,32s-32-14.33-32-32,14.31-32,32-32,32,14.33,32,32Z" style="fill: #e6e9ed;"/>
  <path d="m106.66,202.66c0-5.88-4.78-10.66-10.66-10.66h-42.66c-5.88,0-10.66,4.78-10.66,10.66v105.34c0,5.89,4.78,10.66,10.66,10.66h42.66c5.88,0,10.66-4.77,10.66-10.66v-105.34Z" style="fill: #434a54;"/>
  <path d="m426.66,266.66c0-5.88-4.78-10.66-10.66-10.66H10.66c-5.88,0-10.66,4.78-10.66,10.66v234.69c0,5.88,4.78,10.66,10.66,10.66h405.34c5.88,0,10.66-4.78,10.66-10.66v-234.69Z" style="fill: #ffce54;"/>
  <path d="m96.47,437.34c5.41-59.72,55.75-106.69,116.84-106.69s111.47,46.97,116.88,106.69H96.47Z" style="fill: #f5f7fa;"/>
  <path d="m213.31,320c-70.69,0-128,57.31-128,128h256c0-70.69-57.28-128-128-128Zm-75.41,52.58c20.12-20.14,46.94-31.23,75.41-31.23s55.28,11.09,75.44,31.23c15.03,15.02,25,33.73,29.12,54.08H108.78c4.09-20.34,14.09-39.06,29.12-54.08Z" style="fill: #f6bb42;"/>
  <path d="m213.31,384c-5.88,0-10.66,4.78-10.66,10.66v32h21.34v-32c0-5.88-4.78-10.66-10.69-10.66Z" style="fill: #434a54;"/>
  <path d="m106.66,96c0,17.67-14.31,32-32,32s-32-14.33-32-32,14.34-32,32-32,32,14.33,32,32Z" style="fill: #e6e9ed;"/>
</svg>