<?xml version="1.0" encoding="UTF-8"?>
<svg id="a" data-name="Capa 1" xmlns="http://www.w3.org/2000/svg" viewBox="0 0 800 800">
  <path d="m400,30C195.65,30,30,195.65,30,400s165.65,370,370,370,370-165.66,370-370S604.34,30,400,30Zm59.08,290.95l-52.45,287.88c-1.05,5.34.59,10.65,4.47,14.69,3.88,4.05,9.56,6.37,15.57,6.37,7.37,0,13.33,5.24,13.33,11.72s-5.96,11.72-13.33,11.72h-59.75c-15.64,0-30.43-6-40.59-16.45-10.14-10.47-14.55-24.26-12.07-37.83l52.45-287.88c1.05-5.34-.59-10.65-4.47-14.69-3.88-4.05-9.56-6.37-15.57-6.37-7.37,0-13.33-5.24-13.33-11.72s5.96-11.72,13.33-11.72h59.75c15.64,0,30.43,6,40.59,16.46,10.14,10.47,14.54,24.26,12.07,37.83Zm-25.74-94.28c-25.73,0-46.67-20.94-46.67-46.67s20.94-46.67,46.67-46.67,46.67,20.94,46.67,46.67-20.94,46.67-46.67,46.67Z" style="fill: #1a9dff;"/>
  <path d="m400,800c110.46,0,210.46-44.77,282.84-117.16l-245.05-245.05-31.16,171.04c-1.05,5.34.59,10.65,4.47,14.69,3.88,4.05,9.56,6.37,15.57,6.37,7.37,0,13.33,5.24,13.33,11.72s-5.96,11.72-13.33,11.72h-59.75c-15.64,0-30.43-6-40.59-16.45-10.14-10.47-14.55-24.26-12.07-37.83l43.89-240.9L117.16,117.16C44.77,189.54,0,289.54,0,400c0,220.91,179.09,400,400,400Z" style="fill: #0083e5;"/>
  <path d="m400,800C179.44,800,0,620.56,0,400S179.44,0,400,0s400,179.44,400,400-179.44,400-400,400Zm0-746.67c-191.16,0-346.67,155.51-346.67,346.67s155.51,346.67,346.67,346.67,346.67-155.51,346.67-346.67S591.16,53.33,400,53.33Z" style="fill: #d7dbe0;"/>
  <path d="m400,800c110.28,0,210.28-44.86,282.71-117.29l-37.69-37.69c-62.77,62.77-149.44,101.65-245.02,101.65-191.16,0-346.67-155.51-346.67-346.67,0-95.58,38.88-182.25,101.65-245.02l-37.69-37.69C44.86,189.72,0,289.72,0,400c0,220.56,179.44,400,400,400Z" style="fill: #b8bac0;"/>
</svg>