<?xml version="1.0" encoding="utf-8"?>
<!-- Generator: Adobe Illustrator 27.2.0, SVG Export Plug-In . SVG Version: 6.00 Build 0)  -->
<svg version="1.1" id="Layer_1" xmlns="http://www.w3.org/2000/svg" xmlns:xlink="http://www.w3.org/1999/xlink" x="0px" y="0px"
	 viewBox="0 0 363.6 169.7" style="enable-background:new 0 0 363.6 169.7;" xml:space="preserve">
<path style="fill:#4F4F4F;" d="M535.5,277.2H504c-7,0-12.6-5.7-12.6-12.6V145.1c0-7,5.7-12.6,12.6-12.6h31.5c7,0,12.6,5.7,12.6,12.6
	v119.5C548.1,271.5,542.5,277.2,535.5,277.2z"/>
<path style="fill:#ACABB1;" d="M509.1-73.7v-36.4c0-3.8-0.6-7.4-1.6-10.8c-1.4-4.6-3.7-8.7-6.7-12.3c-6.7-8.1-16.8-13.2-28.1-13.2
	h-581.8c-11.3,0-21.4,5.2-28.1,13.2c-3,3.6-5.3,7.8-6.7,12.3c-1.1,3.4-1.6,7.1-1.6,10.8V83.8v193.9c0,20.1,16.3,36.4,36.4,36.4
	h581.8c20.1,0,36.4-16.3,36.4-36.4L509.1-73.7"/>
<g>
	<path style="fill:#FCB556;" d="M156.7,184.6c-4.8,0-9.5-1.6-13.5-4.8c-9.1-7.5-10.5-20.9-3-30.1l35.6-43.5h-54.6
		c-8.3,0-15.8-4.8-19.3-12.2c-3.5-7.5-2.5-16.3,2.8-22.7L168.7-7c7.5-9.1,20.9-10.5,30.1-3c9.1,7.5,10.5,20.9,3,30.1l-35.6,43.5
		h54.6c8.3,0,15.8,4.8,19.3,12.2c3.5,7.5,2.5,16.3-2.8,22.7l-64.1,78.4C169,181.9,162.9,184.6,156.7,184.6L156.7,184.6z"/>
</g>
<path style="opacity:0.2;fill:#262626;" d="M509.7,84.8l0-195.9c0-3.8-0.6-7.4-1.6-10.8c-1.4-4.6-3.7-8.7-6.7-12.3
	c-6.7-8.1-16.8-13.2-28.1-13.2h-581.8c-11.3,0-21.4,5.2-28.1,13.2c-3,3.6-5.3,7.8-6.7,12.3c-1.1,3.4-1.6,7.1-1.6,10.8V82.9"/>
<path style="fill:#59AFCE;" d="M438.8,26.2H318.1c-8,0-14.4-6.5-14.4-14.4v-83.6c0-8,6.5-14.4,14.4-14.4h120.7
	c8,0,14.4,6.5,14.4,14.4v83.6C453.2,19.7,446.7,26.2,438.8,26.2z"/>
<g>
	<path style="fill:#4C4C4C;stroke:#454646;stroke-width:15;stroke-miterlimit:10;" d="M-29.2,263.9l-2.5,1.5c-2.8,1.6-6.4,0.7-8-2.2
		l-39.7-68.7c-1.6-2.8-0.7-6.4,2.2-8l2.5-1.5c2.8-1.6,6.4-0.7,8,2.2l39.7,68.7C-25.5,258.7-26.4,262.3-29.2,263.9z"/>
	<path style="fill:#4C4C4C;stroke:#454646;stroke-width:15;stroke-miterlimit:10;" d="M21.8,263.9l-2.5,1.5c-2.8,1.6-6.4,0.7-8-2.2
		l-39.7-68.7c-1.6-2.8-0.7-6.4,2.2-8l2.5-1.5c2.8-1.6,6.4-0.7,8,2.2l39.7,68.7C25.5,258.7,24.6,262.3,21.8,263.9z"/>
	<path style="fill:#4C4C4C;stroke:#454646;stroke-width:15;stroke-miterlimit:10;" d="M72.8,263.9l-2.5,1.5c-2.8,1.6-6.4,0.7-8-2.2
		l-39.7-68.7c-1.6-2.8-0.7-6.4,2.2-8l2.5-1.5c2.8-1.6,6.4-0.7,8,2.2l39.7,68.7C76.5,258.7,75.6,262.3,72.8,263.9z"/>
	<path style="fill:#4C4C4C;stroke:#454646;stroke-width:15;stroke-miterlimit:10;" d="M123.8,263.9l-2.5,1.5c-2.8,1.6-6.4,0.7-8-2.2
		l-39.7-68.7c-1.6-2.8-0.7-6.4,2.2-8l2.5-1.5c2.8-1.6,6.4-0.7,8,2.2l39.7,68.7C127.5,258.7,126.6,262.3,123.8,263.9z"/>
</g>
<path style="fill:#4F4F4F;" d="M472.7,328.6h-581.8c-28,0-50.8-22.8-50.8-50.8v-387.9c0-5.1,0.8-10.2,2.3-15.1
	c2-6.3,5.1-12.1,9.3-17.2c9.7-11.7,24-18.5,39.2-18.5h581.8c15.2,0,29.5,6.7,39.2,18.5c4.2,5.1,7.4,10.9,9.3,17.2
	c1.5,4.9,2.3,9.9,2.3,15.1l0,387.9C523.5,305.8,500.7,328.6,472.7,328.6z M-109.1-132.1c-6.6,0-12.8,2.9-17,8
	c-1.8,2.2-3.2,4.7-4,7.4c-0.7,2.1-1,4.3-1,6.5v387.9c0,12.1,9.9,22,22,22h581.8c12.1,0,22-9.9,22-22l0-387.9c0-2.2-0.3-4.4-1-6.5
	c-0.8-2.7-2.2-5.2-4-7.4c-4.2-5.1-10.4-8-17-8H-109.1z"/>
</svg>
