<?xml version="1.0" encoding="UTF-8"?>
<svg id="a" data-name="Layer 1" xmlns="http://www.w3.org/2000/svg" viewBox="0 0 707.97 489.41">
  <rect x="651.16" y="293.27" width="56.81" height="144.79" rx="12.65" ry="12.65" style="fill: #4f4f4f;"/>
  <path d="m668.95,87.13v-36.36c0-3.77-.57-7.4-1.63-10.81-1.42-4.55-3.7-8.72-6.67-12.32-6.67-8.08-16.76-13.23-28.06-13.23H50.76c-11.3,0-21.39,5.15-28.06,13.23-2.97,3.59-5.25,7.76-6.67,12.32-1.06,3.42-1.63,7.05-1.63,10.82v387.88c0,20.08,16.28,36.36,36.36,36.36h581.82c20.08,0,36.36-16.28,36.36-36.36V87.13" style="fill: #acabb1;"/>
  <path d="m316.55,345.42c-4.76,0-9.55-1.57-13.53-4.83-9.13-7.47-10.47-20.94-3.01-30.06l35.55-43.45h-54.62c-8.25,0-15.78-4.76-19.31-12.21-3.53-7.46-2.46-16.29,2.76-22.68l64.11-78.35c7.49-9.14,20.93-10.48,30.08-3.01,9.13,7.47,10.47,20.94,3.01,30.06l-35.55,43.45h54.62c8.26,0,15.78,4.76,19.31,12.21,3.53,7.46,2.46,16.29-2.76,22.68l-64.11,78.35c-4.24,5.17-10.37,7.83-16.56,7.83h.01Z" style="fill: #fcb556;"/>
  <path d="m669.56,245.66V49.81c0-3.77-.57-7.4-1.64-10.81-1.42-4.55-3.7-8.72-6.67-12.32-6.67-8.08-16.76-13.23-28.06-13.23H51.38c-11.3,0-21.39,5.15-28.06,13.23-2.97,3.59-5.25,7.76-6.67,12.32-1.06,3.42-1.63,7.05-1.63,10.82v193.94" style="fill: #262626; opacity: .2;"/>
  <rect x="463.49" y="74.63" width="149.54" height="112.42" rx="14.41" ry="14.41" style="fill: #59afce;"/>
  <g>
    <rect x="99.23" y="340.56" width="14.68" height="91.07" rx="5.88" ry="5.88" transform="translate(-178.77 105.01) rotate(-30)" style="fill: #4c4c4c; stroke: #454646; stroke-miterlimit: 10; stroke-width: 15px;"/>
    <rect x="150.23" y="340.56" width="14.68" height="91.07" rx="5.88" ry="5.88" transform="translate(-171.94 130.51) rotate(-30)" style="fill: #4c4c4c; stroke: #454646; stroke-miterlimit: 10; stroke-width: 15px;"/>
    <rect x="201.23" y="340.56" width="14.68" height="91.07" rx="5.88" ry="5.88" transform="translate(-165.1 156.01) rotate(-30)" style="fill: #4c4c4c; stroke: #454646; stroke-miterlimit: 10; stroke-width: 15px;"/>
    <rect x="252.23" y="340.56" width="14.68" height="91.07" rx="5.88" ry="5.88" transform="translate(-158.27 181.51) rotate(-30)" style="fill: #4c4c4c; stroke: #454646; stroke-miterlimit: 10; stroke-width: 15px;"/>
  </g>
  <path d="m632.58,489.41H50.76c-27.99,0-50.76-22.77-50.76-50.76V50.77c0-5.14.77-10.22,2.28-15.09,1.96-6.31,5.1-12.1,9.32-17.21C21.29,6.73,35.56,0,50.76,0h581.82c15.2,0,29.48,6.73,39.17,18.47,4.22,5.12,7.35,10.91,9.31,17.21,1.51,4.87,2.28,9.94,2.28,15.09v387.88c0,27.99-22.77,50.76-50.76,50.76ZM50.76,28.8c-6.58,0-12.76,2.92-16.96,8-1.83,2.21-3.18,4.71-4.02,7.42-.65,2.1-.99,4.31-.99,6.54v387.88c0,12.11,9.85,21.96,21.96,21.96h581.82c12.11,0,21.96-9.85,21.96-21.96V50.76c0-2.24-.33-4.44-.98-6.53-.85-2.72-2.2-5.22-4.03-7.43-4.2-5.08-10.38-8-16.95-8H50.76Z" style="fill: #4f4f4f;"/>
</svg>