<?xml version="1.0" encoding="UTF-8"?>
<svg id="a" data-name="Layer 1" xmlns="http://www.w3.org/2000/svg" viewBox="0 0 800 799.97">
  <g>
    <path d="m695.66,104.34c-18.94,0-36.8,5.17-52.21,14.19-18.5,10.8-33.46,27.15-42.54,46.69-11.02-5.63-23.22-8.71-35.69-8.71-43.15,0-78.26,35.11-78.26,78.26s35.11,78.26,78.26,78.26h130.55c57.46-.05,104.22-46.85,104.22-104.34,0-57.55-46.8-104.34-104.34-104.34Z" style="fill: #d7ebff;"/>
    <path d="m800,208.69c0,57.49-46.76,104.29-104.22,104.34h-52.33V118.53c15.41-9.03,33.27-14.19,52.21-14.19,57.55,0,104.34,46.8,104.34,104.34Z" style="fill: #bddeff;"/>
  </g>
  <g>
    <path d="m278.28,0c-18.94,0-36.8,5.17-52.21,14.19-18.5,10.8-33.46,27.15-42.54,46.69-11.02-5.63-23.22-8.71-35.69-8.71-43.15,0-78.26,35.11-78.26,78.26s35.11,78.26,78.26,78.26h130.55c57.46-.05,104.22-46.85,104.22-104.34,0-57.55-46.8-104.34-104.34-104.34Z" style="fill: #d7ebff;"/>
    <path d="m382.63,104.34c0,57.49-46.76,104.29-104.22,104.34h-52.33V14.19C241.48,5.17,259.35,0,278.28,0c57.55,0,104.34,46.8,104.34,104.34Z" style="fill: #bddeff;"/>
  </g>
  <path d="m740.49,573.89c-.87-2.78-1.91-5.57-2.79-8.35-10.26-30.61-20.17-60-23.3-96h-211.47c-2.95,34.09-12,62.08-21.56,90.95-.69,1.74-1.22,3.3-1.74,5.04-.87,2.78-1.91,5.57-2.79,8.35-5.56,16.7-11.13,33.74-15.3,52.17-4,16.17-6.96,33.22-8.35,52.17-.7,8.35-1.05,17.04-1.05,26.09v69.56c0,14.41,11.68,26.09,26.09,26.09h286.94v-95.65c0-53.22-12-92.87-24.69-130.43Z" style="fill: #b8c9d9;"/>
  <path d="m737.7,565.54c-10.26-30.61-20.17-60-23.3-96h-105.74v330.42h156.52v-95.65c0-53.22-12-92.87-24.69-130.43-.87-2.78-1.92-5.56-2.79-8.35Z" style="fill: #9eacba;"/>
  <path d="m740.49,573.89h-263.64c.87-2.78,1.91-5.57,2.79-8.35.52-1.74,1.04-3.3,1.74-5.04,9.56-28.87,18.61-56.87,21.56-90.95h211.47c3.13,36,13.04,65.39,23.3,96,.87,2.78,1.91,5.57,2.78,8.35Z" style="fill: #ffd15d;"/>
  <path d="m608.67,469.55v104.34h131.82c-.87-2.78-1.91-5.57-2.79-8.35-10.26-30.61-20.17-60-23.3-96h-105.74Z" style="fill: #f29e1b;"/>
  <path d="m714.41,469.55h-211.47c1.05-8.35,1.39-17.04,1.39-26.09v-52.17c0-14.43,11.65-26.09,26.09-26.09h156.52c14.44,0,26.09,11.65,26.09,26.09v52.17c0,9.04.35,17.74,1.39,26.09Z" style="fill: #576573;"/>
  <path d="m686.93,365.2h-78.26v104.34h105.74c-1.05-8.35-1.39-17.04-1.39-26.09v-52.17c0-14.43-11.65-26.09-26.08-26.09Z" style="fill: #485566;"/>
  <path d="m370.42,526.06c-2.26-11.65-4.35-23.3-6.44-34.95-1.22-6.96-2.43-14.09-3.65-21.56-4.17-25.04-8.17-52.52-10.26-80.34-.69-8.35-1.22-16.35-1.57-24H86.26c-1.74,37.74-7.3,71.3-14.43,104.34-3.13,15.48-6.61,30.78-10.26,46.26-13.22,56.69-26.78,115.47-26.78,188.51v69.56c0,14.43,11.65,26.09,26.09,26.09h260.86c14.44,0,26.09-11.65,26.09-26.09v-147.82c0-16,7.13-30.78,19.48-40.69,15.7-12.13,9.11-27.37,3.13-59.3Z" style="fill: #b8c9d9;"/>
  <path d="m370.42,526.06c-2.26-11.65-4.35-23.3-6.44-34.95-1.22-6.96-2.43-14.09-3.65-21.56-4.17-25.04-8.17-52.52-10.26-80.34-.69-8.35-1.22-16.35-1.57-24h-131.12v434.76h104.34c14.44,0,26.09-11.65,26.09-26.09v-147.82c0-16,7.13-30.78,19.48-40.69,15.7-12.13,9.11-27.37,3.13-59.3Z" style="fill: #9eacba;"/>
  <path d="m360.33,469.55H71.82c7.13-33.04,12.7-66.61,14.43-104.34h262.25c.35,7.65.87,15.65,1.57,24,2.09,27.83,6.08,55.3,10.26,80.35Z" style="fill: #ffd15d;"/>
  <path d="m217.38,365.2v104.34h142.95c-4.17-25.04-8.17-52.52-10.26-80.34-.69-8.35-1.22-16.35-1.57-24h-131.12Z" style="fill: #f29e1b;"/>
  <path d="m348.51,365.2H86.26l.7-26.09v-52.17c0-14.44,11.65-26.09,26.09-26.09h208.69c14.44,0,26.09,11.65,26.09,26.09v52.17l.69,26.09Z" style="fill: #576573;"/>
  <path d="m348.51,365.2l-.7-26.09v-52.17c0-14.44-11.65-26.09-26.09-26.09h-104.34v104.34h131.13Z" style="fill: #485566;"/>
  <path d="m504.33,799.97h-208.69v-147.82c0-14.41,11.68-26.09,26.09-26.09h156.52c14.41,0,26.09,11.68,26.09,26.09v147.82h0Z" style="fill: #cfdbe6;"/>
  <path d="m478.24,626.06h-78.26v173.91h104.34v-147.82c0-14.41-11.68-26.09-26.09-26.09Z" style="fill: #9eacba;"/>
  <path d="m504.33,678.23h-208.69v-52.17c0-31.92,14.3-61.61,39.25-81.45,18.29-14.73,41.46-22.89,65.1-22.89,28.06,0,54.3,10.9,73.86,30.7,19.58,19.36,30.48,45.59,30.48,73.65v52.17Z" style="fill: #576573;"/>
  <path d="m504.33,678.23v-52.17c0-28.06-10.9-54.29-30.48-73.65-19.56-19.79-45.8-30.7-73.86-30.7v156.52h104.34Z" style="fill: #485566;"/>
  <path d="m773.88,799.97H26.09c-14.41,0-26.09-11.68-26.09-26.09h0c0-14.41,11.68-26.09,26.09-26.09h747.79c14.41,0,26.09,11.68,26.09,26.09h0c0,14.41-11.68,26.09-26.09,26.09Z" style="fill: #576573;"/>
  <path d="m773.88,747.79h-373.9v52.17h373.9c14.41,0,26.09-11.68,26.09-26.09,0-14.41-11.68-26.09-26.09-26.09Z" style="fill: #485566;"/>
</svg>