<?xml version="1.0" encoding="UTF-8"?>
<svg id="a" data-name="Layer 1" xmlns="http://www.w3.org/2000/svg" viewBox="0 0 799.99 696.36">
  <path d="m695.64,696.36H104.44c-36.98,0-70.44-18.93-89.45-50.65-19.03-31.72-20-70.13-2.6-102.78L310.75,50.35C329.79,18.83,363.17,0,400.04,0s70.25,18.83,89.3,50.38l297.65,491.3c18.1,33.89,17.13,72.3-1.9,104.02-19.02,31.72-52.47,50.65-89.45,50.65h0Z" style="fill: #e48e15;"/>
  <path d="m695.64,696.36c36.98,0,70.44-18.93,89.45-50.65,19.03-31.72,20-70.13,1.9-104.02L489.34,50.38C470.29,18.83,436.9,0,400.04,0v696.36h295.6Z" style="fill: #e17c18;"/>
  <g>
    <path d="m449.78,277.67c0,82.9-22.11,194.35-49.74,194.35s-49.74-111.45-49.74-194.35,22.11-106.84,49.74-106.84,49.74,23.95,49.74,106.84Z" style="fill: #fff;"/>
    <circle cx="400.04" cy="546.62" r="41.45" style="fill: #fff;"/>
  </g>
</svg>